<?xml version="1.0" encoding="UTF-8"?>
<svg width="24px" height="24px" viewBox="0 0 24 24" version="1.1" xmlns="http://www.w3.org/2000/svg">
    <g stroke="none" stroke-width="1" fill="none" fill-rule="evenodd">
        <path d="M12,2 C17.523,2 22,6.477 22,12 C22,17.523 17.523,22 12,22 C6.477,22 2,17.523 2,12 C2,6.477 6.477,2 12,2 Z M12,4 C7.582,4 4,7.582 4,12 C4,16.418 7.582,20 12,20 C16.418,20 20,16.418 20,12 C20,7.582 16.418,4 12,4 Z M12,6 C12.552,6 13,6.448 13,7 L13,11.586 L16.243,14.828 C16.633,15.219 16.633,15.852 16.243,16.243 C15.852,16.633 15.219,16.633 14.828,16.243 L11.293,12.707 C11.105,12.52 11,12.265 11,12 L11,7 C11,6.448 11.448,6 12,6 Z" fill="#FFFFFF" fill-rule="nonzero"></path>
    </g>
</svg>
