<?xml version="1.0" encoding="UTF-8"?>
<svg width="24px" height="24px" viewBox="0 0 24 24" version="1.1" xmlns="http://www.w3.org/2000/svg">
    <g stroke="none" stroke-width="1" fill="none" fill-rule="evenodd">
        <path d="M12,2 C16.418,2 20,5.582 20,10 C20,14.418 12,22 12,22 C12,22 4,14.418 4,10 C4,5.582 7.582,2 12,2 Z M12,4 C8.686,4 6,6.686 6,10 C6,12.615 10.256,17.232 12,19.147 C13.744,17.232 18,12.615 18,10 C18,6.686 15.314,4 12,4 Z M12,6 C14.209,6 16,7.791 16,10 C16,12.209 14.209,14 12,14 C9.791,14 8,12.209 8,10 C8,7.791 9.791,6 12,6 Z M12,8 C10.895,8 10,8.895 10,10 C10,11.105 10.895,12 12,12 C13.105,12 14,11.105 14,10 C14,8.895 13.105,8 12,8 Z" fill="#FFFFFF" fill-rule="nonzero"></path>
    </g>
</svg>
