<?xml version="1.0" encoding="UTF-8"?>
<svg width="24px" height="24px" viewBox="0 0 24 24" version="1.1" xmlns="http://www.w3.org/2000/svg">
    <g stroke="none" stroke-width="1" fill="none" fill-rule="evenodd">
        <path d="M7.02,15.976 L5.746,13.381 C5.52,12.898 5.566,12.339 5.866,11.9 L7.24,9.695 C7.467,9.364 7.467,8.932 7.24,8.601 L5.592,6.253 C5.469,6.092 5.295,5.979 5.098,5.934 C4.9,5.889 4.694,5.916 4.518,6.008 L2.57,7.062 C1.77,7.501 1.24,8.275 1.126,9.162 C0.878,11.131 1.508,14.021 5.445,17.954 C9.382,21.887 12.279,22.516 14.254,22.269 C15.144,22.155 15.92,21.626 16.36,20.828 L17.416,18.884 C17.508,18.708 17.535,18.502 17.49,18.304 C17.445,18.107 17.332,17.933 17.171,17.81 L14.815,16.156 C14.485,15.929 14.052,15.929 13.722,16.156 L11.52,17.528 C11.08,17.827 10.52,17.873 10.036,17.648 L7.02,15.976 Z" fill="#FFFFFF" fill-rule="nonzero"></path>
    </g>
</svg>
