<?xml version="1.0" encoding="UTF-8"?>
<svg xmlns="http://www.w3.org/2000/svg" width="500" height="250" viewBox="0 0 500 250">
  <!-- Blue stripe -->
  <rect width="500" height="83.33" fill="#1EB5FF"/>
  <!-- White stripe with red lines -->
  <rect y="83.33" width="500" height="83.33" fill="#FFFFFF"/>
  <rect y="88.33" width="500" height="3" fill="#CE1126"/>
  <rect y="158.66" width="500" height="3" fill="#CE1126"/>
  <!-- Green stripe -->
  <rect y="166.66" width="500" height="83.33" fill="#289728"/>
  <!-- Moon and stars -->
  <circle cx="83.33" cy="62.5" r="41.66" fill="#FFFFFF"/>
  <circle cx="94.99" cy="62.5" r="33.33" fill="#1EB5FF"/>
  <!-- 12 stars -->
  <g fill="#FFFFFF">
    <polygon points="183.33,41.66 187.5,54.16 200,54.16 190,62.5 194.16,75 183.33,66.66 172.5,75 176.66,62.5 166.66,54.16 179.16,54.16"/>
    <polygon points="233.33,41.66 237.5,54.16 250,54.16 240,62.5 244.16,75 233.33,66.66 222.5,75 226.66,62.5 216.66,54.16 229.16,54.16"/>
    <polygon points="283.33,41.66 287.5,54.16 300,54.16 290,62.5 294.16,75 283.33,66.66 272.5,75 276.66,62.5 266.66,54.16 279.16,54.16"/>
    <polygon points="333.33,41.66 337.5,54.16 350,54.16 340,62.5 344.16,75 333.33,66.66 322.5,75 326.66,62.5 316.66,54.16 329.16,54.16"/>
    <polygon points="383.33,41.66 387.5,54.16 400,54.16 390,62.5 394.16,75 383.33,66.66 372.5,75 376.66,62.5 366.66,54.16 379.16,54.16"/>
  </g>
</svg>
